<?xml version="1.0" standalone="no"?>
<!DOCTYPE svg PUBLIC "-//W3C//DTD SVG 20010904//EN"
 "http://www.w3.org/TR/2001/REC-SVG-20010904/DTD/svg10.dtd">
<svg version="1.0" xmlns="http://www.w3.org/2000/svg"
 width="1920.000000pt" height="1080.000000pt" viewBox="0 0 1920.000000 1080.000000"
 preserveAspectRatio="xMidYMid meet">
<metadata>
Created by potrace 1.16, written by Peter Selinger 2001-2019
</metadata>
<g transform="translate(0.000000,1080.000000) scale(0.100000,-0.100000)"
fill="#000000" stroke="none">
<path d="M0 5400 l0 -5400 9600 0 9600 0 0 5400 0 5400 -9600 0 -9600 0 0
-5400z m16923 2933 c48 -43 72 -168 48 -253 -4 -14 -2 -35 5 -48 9 -19 8 -33
-5 -72 -9 -28 -18 -42 -21 -34 -3 8 -5 -13 -5 -46 0 -38 -5 -64 -13 -69 -7 -4
-10 -15 -6 -24 6 -17 -25 -79 -37 -72 -3 3 -4 -16 -1 -40 2 -25 1 -45 -4 -45
-5 0 -10 -17 -11 -38 0 -20 -26 -116 -56 -212 -30 -96 -58 -190 -62 -207 l-7
-33 139 0 c181 0 614 -26 678 -40 77 -17 115 -31 115 -42 0 -7 -12 -8 -32 -3
-130 27 -225 36 -537 50 -360 16 -381 14 -381 -20 0 -15 44 -29 48 -15 2 5 13
5 27 0 12 -5 26 -6 29 -3 8 9 119 3 126 -6 3 -4 46 -8 95 -10 50 -1 97 -2 105
-3 39 -3 71 3 65 12 -9 15 4 12 21 -5 11 -10 36 -15 85 -15 39 0 69 -4 69 -10
0 -5 7 -10 16 -10 8 0 13 4 10 9 -3 4 6 6 19 3 24 -4 35 -21 15 -23 -16 -2
-50 -1 -52 1 -12 8 -53 8 -64 -1 -9 -7 -38 -8 -91 -3 -43 4 -82 7 -87 6 -4 -2
-14 3 -22 9 -10 8 -14 8 -14 0 0 -8 -61 -11 -210 -11 l-209 0 -15 -32 c-8 -18
-17 -49 -20 -68 -10 -56 -116 -376 -206 -615 -53 -144 -106 -263 -150 -345
-134 -244 -144 -279 -160 -575 -11 -210 -5 -328 21 -430 14 -52 55 -134 82
-164 l22 -24 -30 7 c-47 12 -94 45 -126 89 -37 51 -75 172 -89 282 -12 93 -12
264 0 246 3 -6 6 11 6 38 -1 27 -4 47 -8 44 -5 -2 -8 12 -8 31 0 20 3 36 8 36
16 0 17 172 1 212 -10 24 -8 32 15 62 14 19 26 42 26 51 0 9 4 14 9 11 13 -9
20 14 57 199 38 189 38 195 23 195 -5 0 -8 -4 -5 -9 3 -5 0 -26 -8 -47 -7 -22
-19 -72 -26 -112 -7 -39 -15 -70 -18 -68 -12 13 81 442 158 730 28 104 49 195
46 202 -6 15 -12 15 -181 -18 -166 -32 -207 -20 -208 62 -1 46 3 56 27 76 18
16 40 24 65 24 20 0 62 4 92 9 30 5 92 12 139 16 108 8 127 13 133 33 14 52
155 519 212 707 89 294 118 360 197 450 38 43 45 47 76 41 19 -3 44 -13 55
-23z m-12745 -948 c40 -17 42 -19 42 -61 0 -24 -1 -44 -2 -44 -2 0 -25 11 -52
25 -69 35 -144 34 -217 -2 -42 -22 -76 -54 -153 -143 -145 -169 -612 -703
-753 -863 -68 -76 -123 -142 -123 -146 0 -4 83 -79 185 -165 l185 -156 33 37
c19 21 125 144 237 273 276 318 637 727 650 735 6 4 10 -13 10 -44 0 -59 34
-15 -360 -471 -387 -450 -532 -614 -548 -624 -17 -10 -399 -126 -414 -126 -5
0 -8 17 -6 38 l3 37 153 49 c83 28 152 53 152 57 0 3 -70 68 -155 143 l-155
137 0 84 0 84 88 103 c364 430 846 980 880 1005 16 12 56 31 88 43 69 24 164
22 232 -5z m-2166 -249 c104 -19 206 -52 292 -96 70 -36 71 -37 74 -79 2 -24
0 -41 -5 -39 -60 30 -163 78 -167 78 -4 0 -13 -18 -22 -40 -18 -45 -48 -60
-72 -36 -14 13 -14 23 -5 58 9 32 9 45 0 50 -14 8 -117 25 -209 33 l-68 6 0
-43 c0 -56 -10 -70 -46 -66 -26 3 -30 8 -38 51 l-8 48 -42 -6 c-51 -8 -181
-43 -213 -58 -16 -7 -22 -16 -17 -26 27 -64 28 -70 15 -85 -22 -26 -50 -19
-72 19 -12 19 -26 35 -33 35 -17 0 -125 -73 -181 -124 l-50 -44 34 -29 c28
-24 33 -34 27 -56 -8 -35 -44 -36 -85 -2 l-30 26 -25 -33 c-13 -18 -40 -59
-59 -90 l-34 -57 -6 62 c-6 61 -5 63 39 129 119 176 355 337 576 394 132 35
302 42 430 20z m2053 -42 l0 -56 -225 -262 c-124 -145 -315 -365 -425 -490
l-200 -227 -3 51 c-2 33 2 60 11 73 35 52 830 967 841 967 0 0 1 -25 1 -56z
m-2035 -281 c67 -17 192 -75 238 -110 l34 -25 39 38 39 38 0 -54 0 -55 -206
-235 c-773 -881 -971 -1100 -998 -1100 -26 0 -95 69 -163 160 -34 47 -41 66
-47 123 -10 90 -2 122 34 137 42 17 64 10 68 -23 3 -23 -2 -30 -32 -42 -19 -8
-37 -19 -40 -23 -11 -19 153 -233 177 -231 12 0 147 151 147 163 0 4 -23 37
-52 74 -55 72 -104 170 -134 267 -14 45 -18 92 -18 190 0 121 3 137 34 230 76
222 253 397 476 470 110 35 284 39 404 8z m7421 -170 c22 -57 -7 -134 -62
-163 -22 -12 -96 26 -113 58 -13 25 -12 28 37 72 55 49 70 58 105 59 16 1 26
-7 33 -26z m7898 -425 c70 -72 82 -95 75 -138 -4 -24 -19 -57 -34 -74 -14 -17
-37 -48 -50 -69 -12 -22 -64 -71 -114 -111 -74 -59 -103 -76 -158 -91 -62 -16
-102 -17 -139 -1 -11 5 -20 -3 -32 -31 -20 -45 -48 -163 -42 -174 9 -13 98
-39 134 -39 91 1 304 76 523 186 70 35 130 64 133 64 3 0 -16 -21 -43 -47 -56
-56 -128 -101 -237 -147 -95 -42 -103 -51 -40 -42 34 4 45 3 35 -4 -8 -5 -10
-10 -5 -10 17 0 -69 -49 -87 -50 -10 0 -18 -6 -18 -13 0 -19 -132 -67 -221
-79 -77 -12 -78 -11 -136 18 -50 25 -62 37 -88 89 -28 54 -30 67 -30 159 0 94
3 106 37 184 76 171 207 332 332 406 51 31 69 36 121 36 51 0 66 -4 84 -22z
m-14749 -66 l0 -39 -92 -6 c-51 -3 -135 -3 -185 0 l-93 6 0 38 0 39 185 0 185
0 0 -38z m6270 18 c8 -5 26 -20 40 -35 24 -27 24 -27 2 -16 -28 15 -77 -10
-192 -95 -41 -31 -90 -63 -107 -72 -18 -9 -33 -21 -33 -28 0 -7 -19 -32 -43
-57 -90 -92 -327 -467 -327 -517 0 -26 -49 -89 -82 -106 -29 -15 -32 -15 -57
3 -48 35 -71 97 -71 193 0 114 60 434 107 567 14 40 15 41 44 31 48 -17 69
-56 69 -132 0 -36 -5 -88 -11 -116 -6 -28 -9 -53 -7 -55 2 -2 28 28 58 68 91
120 277 300 340 330 108 52 216 66 270 37z m2772 -12 c64 -14 98 -53 98 -114
0 -99 -75 -159 -155 -122 -21 9 -25 18 -25 52 l-1 41 -39 -44 c-50 -58 -113
-169 -161 -284 -42 -103 -82 -237 -70 -237 24 0 163 136 278 273 73 86 130
157 127 157 -11 0 78 106 162 193 47 48 91 87 97 87 6 0 30 -7 53 -16 36 -14
43 -21 57 -67 28 -89 39 -224 35 -427 l-3 -194 95 -2 c155 -3 273 -53 361
-153 46 -51 82 -116 76 -134 -2 -7 0 -23 6 -37 12 -33 18 -108 7 -115 -4 -3
-11 19 -14 48 -21 166 -146 274 -326 285 -88 5 -200 -12 -200 -29 0 -67 -25
-318 -36 -364 -8 -33 -16 -103 -18 -155 -2 -53 -13 -128 -24 -169 -11 -40 -18
-79 -16 -86 3 -6 -1 -25 -7 -41 -7 -16 -13 -35 -15 -43 -33 -165 -68 -289 -99
-351 -12 -25 -20 -51 -18 -58 3 -7 0 -18 -6 -26 -6 -7 -19 -40 -29 -73 -11
-34 -29 -75 -41 -91 -11 -17 -21 -37 -21 -46 0 -8 -11 -35 -24 -60 -14 -25
-27 -59 -31 -75 -3 -16 -24 -55 -46 -86 -21 -31 -39 -65 -39 -75 0 -11 -4 -20
-10 -20 -5 0 -10 -9 -10 -20 0 -10 -6 -23 -12 -27 -7 -4 -26 -34 -43 -66 -16
-32 -39 -68 -51 -80 -12 -12 -28 -36 -37 -53 -43 -84 -176 -197 -302 -256 -66
-30 -71 -31 -131 -21 -195 34 -319 165 -430 456 -38 100 -49 177 -49 342 1
222 67 429 218 685 95 161 116 193 168 250 l50 55 -54 -75 c-229 -318 -349
-612 -361 -890 l-6 -115 29 185 c26 167 34 197 79 307 74 176 130 285 144 277
6 -4 8 -3 4 4 -9 15 14 62 31 62 10 0 3 -22 -24 -72 -21 -40 -38 -77 -38 -83
0 -5 -12 -35 -26 -65 -39 -80 -103 -283 -116 -365 -2 -16 -7 -37 -10 -45 -3
-8 -7 -22 -8 -30 -1 -8 -5 -35 -9 -60 -6 -30 -5 -42 2 -35 5 6 12 28 14 50 8
66 78 305 109 372 16 33 26 68 23 77 -3 9 -1 16 5 16 7 0 20 20 31 45 11 25
31 62 45 82 14 21 25 45 25 55 0 9 9 22 20 28 11 6 18 15 16 19 -3 5 3 16 13
25 11 10 25 31 31 47 7 16 27 45 44 63 17 18 55 63 84 99 29 37 60 67 68 67 8
0 14 6 14 13 0 14 147 160 221 219 100 80 139 107 139 98 0 -6 4 -10 10 -10 5
0 7 7 4 15 -4 8 -1 15 5 15 6 0 11 -5 11 -11 0 -5 5 -7 10 -4 6 4 8 11 4 16
-7 13 15 41 27 33 5 -3 9 0 9 5 0 6 6 11 13 11 7 0 28 11 47 23 19 13 69 39
110 58 42 19 89 44 105 57 30 22 29 22 -40 -3 -86 -32 -230 -108 -333 -176
-42 -29 -82 -52 -89 -52 -7 0 -10 -4 -7 -8 2 -4 -47 -51 -110 -103 -62 -53
-137 -122 -166 -153 -30 -33 -60 -57 -69 -55 -11 2 -12 0 -4 -5 9 -6 7 -17 -9
-41 -11 -17 -24 -32 -28 -32 -5 0 -39 -40 -76 -90 -36 -49 -68 -90 -69 -90 -2
0 -11 -3 -20 -7 -13 -4 -11 4 10 35 15 23 32 39 38 35 6 -3 7 -1 3 6 -11 18
108 166 125 155 5 -3 6 2 3 10 -4 10 6 26 26 43 17 16 45 47 62 71 16 24 32
41 36 38 3 -3 44 33 92 80 48 47 102 95 119 107 17 12 31 29 32 37 0 11 2 11
6 2 4 -9 15 -5 41 15 21 15 41 33 45 40 4 7 15 13 23 13 16 0 63 30 98 61 10
10 25 15 34 12 10 -4 13 -2 8 5 -5 8 -2 10 8 6 9 -4 18 0 22 9 3 9 11 14 19
11 7 -3 19 2 28 10 8 8 17 13 20 10 5 -5 73 24 92 39 6 4 30 19 55 31 44 24
45 25 53 88 4 35 4 160 0 276 l-8 213 -90 -118 c-176 -230 -284 -359 -376
-450 -137 -134 -193 -146 -281 -60 l-41 40 5 101 c6 115 35 215 99 336 48 92
149 229 216 291 54 50 52 50 155 27z m-882 -8 c0 -5 17 -14 38 -19 43 -12 92
-77 92 -123 0 -18 5 -28 15 -28 20 0 19 -14 -1 -35 -12 -11 -13 -19 -5 -29 6
-7 8 -15 5 -18 -2 -3 -7 -18 -10 -33 -3 -15 -11 -44 -18 -66 -8 -21 -10 -39
-5 -39 4 0 3 -14 -3 -31 -14 -42 -5 -167 16 -207 14 -28 15 -33 2 -38 -29 -11
-71 20 -99 76 -28 54 -29 58 -23 175 3 66 9 164 12 218 4 63 3 97 -3 97 -18 0
-137 -142 -172 -202 -18 -32 -52 -84 -76 -115 -23 -32 -64 -96 -89 -143 -54
-98 -101 -150 -157 -176 -117 -52 -167 83 -104 277 99 305 109 329 138 329 34
0 88 -18 107 -35 17 -16 17 -20 -12 -82 -16 -36 -27 -67 -25 -70 6 -5 81 91
152 194 65 96 116 133 183 133 23 0 42 -4 42 -10z m3595 0 c3 -5 23 -14 43
-20 28 -7 44 -21 65 -53 15 -24 27 -56 27 -71 0 -16 6 -26 14 -26 9 0 12 -7 9
-20 -3 -11 -9 -20 -14 -20 -4 0 -7 -16 -5 -35 2 -20 -3 -55 -11 -78 -30 -84
-34 -214 -8 -286 8 -25 12 -48 7 -53 -16 -16 -61 10 -87 50 -33 51 -45 127
-34 232 21 217 23 280 8 280 -20 0 -125 -127 -174 -210 -22 -37 -58 -92 -81
-121 -22 -30 -57 -86 -78 -126 -64 -121 -142 -193 -210 -193 -54 0 -97 99 -81
187 8 50 47 170 99 313 l41 115 48 -2 c26 -1 59 -9 73 -18 30 -20 29 -32 -10
-118 -14 -32 -22 -56 -16 -52 13 8 83 99 132 172 65 97 88 123 126 143 39 20
107 27 117 10z m-7123 -38 c68 -25 132 -73 152 -117 18 -38 19 -127 1 -181
l-7 -22 84 20 c108 25 259 75 381 128 53 23 104 40 111 37 7 -3 16 -17 18 -31
5 -23 -2 -30 -63 -66 -75 -45 -84 -47 -75 -24 5 14 4 15 -8 5 -8 -6 -20 -10
-27 -9 -9 2 -14 -6 -14 -19 0 -13 -5 -22 -10 -20 -6 1 -9 10 -8 20 4 28 -14
19 -25 -12 -11 -31 -43 -54 -77 -56 -11 0 -29 -4 -40 -8 -18 -6 -67 -15 -102
-19 -7 -1 -13 -7 -13 -14 0 -13 -22 -24 -46 -24 -9 0 -12 5 -8 11 4 7 -2 9
-17 7 -13 -2 -23 -9 -21 -16 1 -6 -5 -12 -13 -12 -8 0 -15 5 -15 10 0 6 -4 10
-10 10 -5 0 -10 -6 -10 -12 0 -7 -15 -20 -32 -28 -17 -8 -36 -24 -42 -35 -47
-88 -126 -202 -166 -238 -54 -49 -117 -71 -171 -60 -51 10 -124 87 -143 152
-35 119 -3 276 73 363 24 28 31 45 31 77 0 153 151 241 312 183z m8038 -1
c136 -52 186 -153 144 -290 -7 -23 -6 -23 37 -16 75 12 268 74 396 127 68 28
129 48 137 45 7 -3 16 -17 18 -31 5 -23 -2 -30 -65 -67 -59 -34 -75 -39 -94
-30 -25 11 -39 0 -29 -24 6 -16 -9 -29 -24 -20 -7 4 -7 13 0 26 6 11 7 19 1
19 -11 0 -21 -24 -22 -58 0 -15 -3 -21 -6 -15 -4 10 -9 10 -26 1 -12 -7 -26
-11 -31 -10 -5 2 -13 -3 -17 -10 -6 -9 -9 -9 -9 -1 0 6 -9 9 -20 6 -11 -3 -20
-10 -20 -15 0 -6 -7 -7 -16 -4 -8 3 -12 2 -9 -4 4 -6 -6 -7 -24 -4 -22 5 -34
1 -47 -15 -19 -21 -74 -30 -74 -11 0 6 -4 10 -10 10 -5 0 -7 -7 -3 -16 5 -14
1 -16 -25 -12 -17 2 -29 1 -26 -4 3 -4 -3 -8 -14 -8 -22 0 -72 -36 -72 -52 0
-21 -110 -184 -152 -225 -96 -94 -199 -97 -276 -8 -18 20 -38 49 -43 64 -48
123 -15 309 71 408 21 23 29 41 25 53 -9 28 13 100 41 138 14 17 42 41 62 52
50 26 154 27 222 1z m-6042 -49 c22 -14 52 -61 52 -81 0 -5 -9 -12 -19 -16
-20 -6 -84 -125 -120 -225 -33 -90 -71 -247 -71 -295 l0 -45 56 0 c63 0 197
41 293 89 32 17 61 27 64 24 4 -3 19 3 34 13 15 10 48 29 73 41 25 12 77 43
115 68 39 24 87 54 108 66 22 11 60 35 85 54 63 44 153 97 159 92 6 -7 -27
-37 -41 -37 -6 0 -27 -14 -46 -30 -29 -25 -31 -30 -12 -25 12 4 22 2 22 -3 0
-5 -9 -12 -21 -15 -13 -4 -18 -10 -13 -18 4 -8 3 -10 -5 -5 -7 5 -17 -6 -27
-30 -14 -33 -18 -36 -28 -22 -10 14 -16 12 -47 -16 -19 -18 -33 -39 -31 -46 3
-9 -1 -11 -12 -7 -11 5 -15 3 -10 -5 5 -8 0 -9 -15 -5 -17 4 -21 2 -17 -8 3
-10 0 -12 -11 -8 -10 4 -14 2 -10 -4 7 -12 -38 -52 -108 -95 -22 -14 -60 -44
-84 -68 -79 -77 -223 -125 -351 -118 -119 7 -191 54 -238 156 -32 71 -26 130
35 317 60 185 83 235 132 288 44 48 60 50 109 19z m-6948 -271 c5 -11 10 -66
10 -123 0 -57 3 -147 7 -200 l6 -97 26 13 c14 8 50 19 79 25 142 30 295 -7
392 -96 37 -33 40 -39 40 -89 l0 -53 -49 49 c-116 116 -286 149 -431 84 l-58
-26 6 -194 5 -194 -24 -9 c-19 -7 -38 -1 -96 31 l-73 39 0 -31 c0 -48 38 -150
76 -201 145 -198 443 -212 608 -28 l36 39 0 -59 c0 -57 -2 -61 -39 -90 -21
-17 -70 -46 -108 -64 -65 -31 -73 -32 -188 -32 -118 0 -121 1 -198 37 -101 49
-171 118 -222 221 -32 65 -39 90 -44 164 l-6 88 -75 41 c-41 23 -135 74 -207
113 l-133 72 0 40 c0 21 3 39 7 39 3 0 98 -47 209 -105 112 -58 207 -105 211
-105 4 0 19 26 32 57 14 31 49 83 80 115 l54 59 -2 166 c-1 91 -6 173 -9 183
-6 15 -44 -5 -254 -134 -136 -84 -266 -162 -288 -175 l-40 -22 0 43 0 44 218
137 c119 75 255 161 302 191 92 59 123 67 140 37z m15411 -841 c5 0 9 -20 9
-45 0 -25 -5 -45 -11 -45 -6 0 -10 -19 -8 -47 2 -37 -5 -62 -29 -109 -39 -77
-64 -173 -60 -232 3 -47 3 -47 47 -58 25 -6 47 -16 49 -23 2 -7 1 -41 -3 -76
l-6 -63 -29 10 c-73 25 -171 186 -192 315 -10 59 -9 68 16 131 28 74 101 190
163 262 l38 44 3 -32 c2 -18 7 -32 13 -32z m-13821 -330 c-6 -3 -65 -21 -133
-40 -67 -18 -123 -34 -125 -35 -2 -2 20 -26 48 -54 55 -55 79 -100 89 -169 l6
-43 60 72 60 72 3 -57 3 -57 -96 -114 c-116 -138 -152 -170 -225 -204 l-55
-26 -835 -3 c-459 -2 -1052 -1 -1317 3 l-483 7 0 33 0 32 388 7 c213 4 804 6
1313 6 1044 -1 976 -6 1048 77 51 57 68 124 52 197 -15 68 -58 119 -132 157
-55 27 -59 32 -59 64 0 45 1 45 222 104 l173 46 3 -34 c2 -19 -2 -37 -8 -41z"/>
<path d="M16829 8138 c-20 -40 -40 -88 -43 -105 -4 -18 -11 -33 -16 -33 -4 0
-16 -26 -25 -57 -9 -32 -20 -65 -23 -73 -3 -8 -6 -18 -7 -22 -2 -5 -4 -11 -5
-15 -1 -5 -2 -12 -1 -17 1 -4 -3 -14 -10 -22 -6 -7 -8 -18 -5 -23 4 -5 2 -12
-3 -16 -6 -3 -8 -12 -4 -20 3 -9 -1 -23 -8 -32 -8 -8 -14 -28 -15 -43 -1 -25
-54 -205 -90 -305 -8 -23 -14 -48 -14 -58 0 -9 -4 -17 -9 -17 -5 0 -8 -12 -8
-26 0 -15 -4 -29 -9 -33 -5 -3 -10 -23 -11 -43 l-3 -38 44 0 45 0 16 58 c9 31
47 158 85 282 105 341 168 624 158 705 -3 23 -8 16 -39 -47z"/>
<path d="M16919 8088 c-6 -24 -15 -50 -19 -59 -5 -9 -6 -25 -4 -36 3 -11 -7
-46 -21 -79 -15 -32 -27 -76 -27 -96 -1 -21 -4 -35 -9 -32 -8 4 -11 -6 -43
-132 -9 -33 -40 -137 -70 -230 -60 -188 -81 -272 -72 -281 10 -10 58 16 50 28
-8 13 15 89 27 89 4 0 8 17 7 39 0 25 8 49 22 69 14 19 20 37 16 48 -4 9 0 21
8 28 8 6 22 35 30 65 19 64 20 74 6 66 -5 -3 -10 -5 -10 -3 1 10 39 121 39
114 1 -6 6 -5 12 1 6 6 12 38 15 72 2 34 7 67 11 74 4 6 8 20 9 32 2 11 14 75
27 143 13 67 20 122 16 122 -5 0 -13 -19 -20 -42z"/>
<path d="M16471 6977 c-6 -8 -34 -108 -61 -223 -28 -115 -62 -245 -75 -289
-28 -98 -41 -174 -27 -160 17 16 193 490 235 633 l16 52 -38 0 c-21 0 -44 -6
-50 -13z"/>
<path d="M16544 6837 c-81 -242 -110 -318 -117 -310 -4 3 -7 -1 -7 -11 0 -16
-19 -71 -59 -173 -20 -51 -20 -53 -2 -53 13 0 24 14 36 48 10 26 33 79 52 118
18 39 33 76 33 83 0 7 4 10 9 6 6 -3 13 10 17 30 3 19 11 35 16 35 6 0 8 7 4
15 -3 8 1 20 8 27 10 11 42 94 50 133 2 6 8 21 14 35 14 32 26 82 23 97 -1 6
3 14 9 18 5 3 10 17 10 31 0 18 -5 24 -22 24 -21 -1 -29 -17 -74 -153z"/>
<path d="M1692 6735 c-66 -15 -184 -70 -242 -113 -151 -113 -246 -293 -257
-487 -6 -111 12 -204 60 -307 36 -78 110 -178 130 -177 10 0 146 150 250 275
l29 35 -18 37 c-44 92 -27 193 45 262 68 67 150 86 236 55 22 -8 41 -15 42
-15 9 -1 268 305 268 317 0 19 -96 74 -180 104 -79 27 -271 35 -363 14z"/>
<path d="M1805 6239 c-70 -20 -116 -109 -93 -179 l11 -34 31 35 c17 20 58 66
90 103 32 36 57 68 55 70 -11 10 -68 13 -94 5z"/>
<path d="M17258 6135 c-62 -25 -104 -53 -112 -73 -3 -7 -1 -10 4 -7 5 3 -22
-26 -62 -64 -39 -39 -69 -73 -65 -77 9 -10 155 84 210 135 49 46 92 99 86 106
-2 2 -30 -7 -61 -20z"/>
<path d="M8704 6160 c-104 -23 -329 -240 -452 -436 -54 -86 -36 -71 47 37 129
169 278 310 391 370 55 29 54 28 49 32 -2 2 -18 1 -35 -3z"/>
<path d="M11826 5988 c-111 -118 -265 -306 -266 -323 0 -14 89 76 182 182 44
51 85 90 90 87 4 -3 7 -2 6 3 -2 5 11 22 29 38 18 17 34 37 35 45 2 8 12 19
22 25 19 10 31 55 15 55 -4 0 -55 -51 -113 -112z"/>
<path d="M11824 5231 c-268 -142 -452 -277 -592 -433 -55 -62 -121 -133 -146
-158 -25 -24 -46 -51 -46 -60 0 -9 -9 -26 -20 -38 -11 -12 -20 -26 -20 -32 0
-6 -7 -13 -15 -16 -8 -4 -15 -10 -15 -16 0 -5 -13 -28 -29 -51 -45 -66 -96
-174 -126 -267 -15 -47 -36 -107 -46 -135 -44 -122 -52 -164 -57 -280 -7 -197
22 -370 83 -500 49 -103 59 -110 164 -110 76 0 94 4 153 32 86 40 168 122 275
275 97 137 269 465 309 588 15 47 37 105 49 130 13 25 37 97 55 160 18 63 38
131 45 150 7 19 23 100 35 180 13 80 31 173 40 207 10 38 13 66 8 71 -6 6 -4
26 5 54 9 24 18 82 22 128 4 47 11 100 16 119 9 35 -2 61 -25 61 -6 0 -61 -27
-122 -59z"/>
<path d="M10684 6101 c7 -10 -31 -61 -45 -61 -5 0 0 9 11 20 28 28 15 48 -14
21 -11 -11 -32 -22 -46 -26 -16 -4 -26 -14 -27 -26 -2 -22 7 -24 26 -6 10 10
11 8 5 -6 -5 -14 -13 -17 -35 -12 -29 7 -42 -8 -16 -18 6 -3 2 -6 -10 -6 -13
-1 -24 -8 -24 -16 -3 -28 -4 -33 -11 -41 -12 -11 -10 -26 2 -19 6 3 10 1 10
-4 0 -6 -5 -11 -10 -11 -19 0 -37 -24 -32 -42 6 -25 14 -22 34 12 9 17 23 30
31 30 16 0 71 58 107 115 15 22 34 46 44 54 9 8 22 23 27 33 8 15 6 18 -11 18
-12 0 -19 -4 -16 -9z"/>
<path d="M14284 6101 c7 -10 -31 -61 -45 -61 -5 0 1 10 12 21 16 16 18 23 9
29 -7 4 -20 0 -31 -11 -10 -10 -29 -21 -42 -24 -13 -4 -23 -14 -24 -26 -2 -21
13 -26 20 -6 3 7 6 4 6 -7 1 -15 -4 -17 -29 -12 -29 5 -42 -7 -17 -17 6 -3 2
-6 -10 -6 -13 -1 -24 -8 -24 -16 -3 -28 -4 -33 -11 -41 -12 -11 -10 -26 2 -19
6 3 10 1 10 -4 0 -6 -5 -11 -11 -11 -19 0 -36 -25 -29 -44 6 -17 9 -16 29 12
12 18 27 32 33 32 13 0 98 88 98 101 0 5 15 26 33 46 61 71 62 73 38 73 -12 0
-20 -4 -17 -9z"/>
<path d="M7175 6030 c-71 -41 -105 -80 -109 -122 -2 -20 -13 -48 -25 -63 -11
-15 -21 -33 -21 -41 0 -25 153 -54 188 -35 25 13 62 127 62 189 0 34 -6 54
-23 74 l-22 27 -50 -29z"/>
<path d="M6940 5703 c-24 -54 -50 -147 -50 -178 0 -11 5 -37 10 -57 10 -34 12
-36 38 -28 74 21 125 65 186 162 l36 57 -38 10 c-20 6 -64 26 -96 46 -32 19
-60 35 -62 35 -2 0 -13 -21 -24 -47z"/>
<path d="M15185 6016 c-67 -45 -88 -70 -89 -109 -1 -18 -12 -46 -24 -61 -12
-16 -22 -34 -22 -41 0 -18 69 -35 138 -35 l61 0 26 81 c14 44 25 92 25 107 0
32 -34 92 -52 91 -7 0 -35 -15 -63 -33z"/>
<path d="M14959 5671 c-25 -59 -33 -91 -33 -143 -1 -86 8 -97 68 -74 50 19
126 95 164 164 l23 41 -38 10 c-21 6 -64 26 -95 45 l-57 34 -32 -77z"/>
</g>
</svg>
